#!OML:ASF H:\ManfredETheater\Project 1\Capture day 1\Session 1\subject.ASF
:FULLY-SPECIFIED
:DEGREES
63
root 4.324 19.7666 14.3116 -175.27 -13.1543 183.714
lowerback 17.9679 -0.31733 -0.835242
upperback 1.72375 -0.632815 3.91035
thorax -8.17109 -0.368248 4.89622
lowerneck -14.644 -1.75998 -3.30181
upperneck 5.27568 -1.92314 1.41374
head 3.97876 -0.96776 0.818338
rclavicle -1.88845e-014 2.8625e-014
rhumerus -65.6503 16.2227 -62.6453
rradius 67.6708
rwrist -0.581094
rhand -22.5057 5.30053
rfingers 7.12502
rthumb 3.92046 -24.6431
lclavicle -1.88845e-014 2.8625e-014
lhumerus -16.8982 -22.3149 64.5696
lradius 113.916
lwrist 9.34
lhand -21.5682 -15.0185
lfingers 7.12502
lthumb 4.82575 14.9065
rfemur -77.7368 -12.8316 15.7247
rtibia 118.55
rfoot -18.9193 -8.41302
rtoes -30.6037
lfemur -8.4202 -9.17392 -20.641
ltibia 31.0682
lfoot 17.2448 -2.06357
ltoes -11.4837
64
root 4.29275 20.0757 13.8945 -175.603 -13.5065 183.511
lowerback 17.7669 -0.375628 -0.954631
upperback 1.98465 -0.763603 3.89095
thorax -7.76353 -0.447458 4.95979
lowerneck -14.2245 -1.92089 -3.56426
upperneck 5.67362 -2.08247 1.33734
head 4.04081 -1.05334 0.82663
rclavicle 2.40529e-014 -3.22031e-014
rhumerus -64.4599 17.2743 -63.3382
rradius 65.7324
rwrist -0.504425
rhand -22.1156 5.42483
rfingers 7.12502
rthumb 4.29717 -24.5116
lclavicle 2.40529e-014 -3.22031e-014
lhumerus -16.3626 -23.1415 64.1097
lradius 110.053
lwrist 10.4602
lhand -20.9434 -14.4744
lfingers 7.12502
lthumb 5.429 15.4361
rfemur -77.5783 -12.3003 15.7026
rtibia 115.282
rfoot -19.1465 -9.02212
rtoes -31.0269
lfemur -7.92577 -8.24558 -21.0436
ltibia 31.8919
lfoot 19.496 -1.84333
ltoes -9.54244
65
root 4.26651 20.3816 13.485 -175.797 -14.0826 183.158
lowerback 17.5855 -0.478144 -1.15119
upperback 2.2167 -0.963025 3.82
thorax -7.39225 -0.555254 5.02795
lowerneck -13.8116 -2.09378 -3.85406
upperneck 6.00694 -2.26115 1.27609
head 4.08493 -1.15067 0.842809
rclavicle -3.43897e-014 3.37934e-014
rhumerus -63.1292 18.0604 -64.0507
rradius 63.7076
rwrist -0.598327
rhand -21.7715 5.51721
rfingers 7.12502
rthumb 4.62939 -24.4122
lclavicle -3.43897e-014 3.37934e-014
lhumerus -15.781 -23.9094 64.0317
lradius 105.902
lwrist 11.1808
lhand -20.3965 -14.1029
lfingers 7.12502
lthumb 5.95704 15.7933
rfemur -77.2467 -12.1554 15.5604
rtibia 111.943
rfoot -19.3802 -9.29612
rtoes -31.6061
lfemur -8.0697 -6.89023 -21.5298
ltibia 33.7049
lfoot 20.5055 -2.3194
ltoes -7.87872
66
root 4.24619 20.6797 13.0834 -175.882 -14.8742 182.691
lowerback 17.4647 -0.613195 -1.40599
upperback 2.41842 -1.21159 3.71461
thorax -7.08193 -0.683158 5.10527
lowerneck -13.3865 -2.29243 -4.17918
upperneck 6.25267 -2.47903 1.25508
head 4.10219 -1.26761 0.874779
rclavicle -2.64384e-014 -2.54444e-014
rhumerus -61.6861 18.5618 -64.7189
rradius 61.6345
rwrist -0.781587
rhand -21.5092 5.55878
rfingers 7.12502
rthumb 4.88269 -24.365
lclavicle -2.64384e-014 -2.54444e-014
lhumerus -15.135 -24.5435 64.3152
lradius 101.476
lwrist 11.1209
lhand -20.0268 -13.969
lfingers 7.12502
lthumb 6.3139 15.9169
rfemur -76.7532 -12.3245 15.3214
rtibia 108.589
rfoot -19.601 -9.35356
rtoes -32.2438
lfemur -8.79059 -5.38671 -22.0825
ltibia 36.5046
lfoot 20.4086 -3.28564
ltoes -6.75975
67
root 4.23193 20.966 12.6888 -175.895 -15.841 182.154
lowerback 17.4323 -0.758027 -1.69993
upperback 2.59793 -1.47747 3.59429
thorax -6.84085 -0.817208 5.19597
lowerneck -12.9374 -2.51759 -4.51535
upperneck 6.40172 -2.74142 1.27186
head 4.0881 -1.40562 0.917916
rclavicle -1.47101e-014 1.07344e-014
rhumerus -60.1583 18.7623 -65.2848
rradius 59.554
rwrist -0.977482
rhand -21.3094 5.4953
rfingers 7.12502
rthumb 5.07564 -24.4239
lclavicle -1.47101e-014 1.07344e-014
lhumerus -14.4212 -24.9882 64.9315
lradius 96.8057
lwrist 10.0688
lhand -19.9 -14.0939
lfingers 7.12502
lthumb 6.43631 15.7883
rfemur -76.1189 -12.7098 15.0086
rtibia 105.239
rfoot -19.7925 -9.27809
rtoes -32.795
lfemur -9.91945 -3.98107 -22.687
ltibia 40.0301
lfoot 19.5541 -4.4924
ltoes -6.29848
68
root 4.22668 21.2152 12.2996 -175.876 -16.9281 181.605
lowerback 17.5095 -0.88947 -2.00634
upperback 2.76107 -1.72739 3.47896
thorax -6.67683 -0.942406 5.30059
lowerneck -12.4757 -2.78299 -4.87115
upperneck 6.47462 -3.06628 1.35122
head 4.0524 -1.57178 0.980002
rclavicle -2.38542e-015 7.15625e-015
rhumerus -58.5678 18.6615 -65.711
rradius 57.4881
rwrist -1.14553
rhand -21.1487 5.27126
rfingers 7.12502
rthumb 5.23079 -24.6442
lclavicle -2.38542e-015 7.15625e-015
lhumerus -13.6516 -25.2005 65.8402
lradius 91.946
lwrist 8.00896
lhand -20.0504 -14.4458
lfingers 7.12502
lthumb 6.29113 15.4408
rfemur -75.5289 -13.2056 14.6645
rtibia 102.045
rfoot -19.9094 -9.15926
rtoes -33.2112
lfemur -11.4063 -2.80003 -23.2988
ltibia 44.1767
lfoot 18.3091 -5.72853
ltoes -6.42866
